<svg preserveAspectRatio="none" data-bbox="-0.003 0.001 533.283 337.569" viewBox="-0.003 0.001 533.283 337.569" xmlns="http://www.w3.org/2000/svg" data-type="shape" role="presentation" aria-hidden="true" aria-label="">
    <g>
        <g>
            <path d="M332.9 278c0 9.66-7.2 16.57-17.36 16.57h-13.61v-33.09h13.61c10.18 0 17.36 6.85 17.36 16.52zm-9.5 0c0-4.9-3.31-8.16-8.3-8.16h-3.86v16.38h3.86c4.99-.01 8.3-3.35 8.3-8.22z"></path>
            <path d="M359.65 286.66v7.9h-21.92v-33.08h21.52v7.88H347v4.87h11v7.47h-11v5z"></path>
            <path d="M363.34 283.88h9.55c0 2.36 1.86 3.51 4 3.51 1.94 0 3.79-1 3.79-2.82 0-2.08-2.61-2.68-5.81-3.44-4.87-1.19-11.07-2.65-11.07-10.19 0-6.51 4.86-10.24 12.8-10.24s12.68 4.07 12.68 10.8H380c0-2.09-1.59-3.07-3.51-3.07-1.65 0-3.23.7-3.23 2.24 0 1.88 2.53 2.5 5.7 3.29 4.95 1.25 11.42 2.88 11.42 10.43 0 7.23-5.64 11-13.45 11-8.27-.02-13.59-4.3-13.59-11.51z"></path>
            <path d="M395.19 261.48h9.39v33.08h-9.39z"></path>
            <path d="M445 276.88c0 10.83-7.18 18.52-17.71 18.52-10.31 0-17.92-7.29-17.92-17.35s7.47-17.41 17.83-17.41a18.1 18.1 0 0 1 15 7.22c0 .06-7.22 5.9-7.22 5.9a8.15 8.15 0 0 0-7.65-4.58c-5 0-8.44 3.58-8.44 8.87s3.34 8.81 8.44 8.81c3.53 0 6.56-1.68 7.62-4.23h-8.35v-5.75z"></path>
            <path d="M478.51 261.48v33.08h-7.66l-13.36-17.95v17.95h-9v-33.08h8.11l12.92 17.36v-17.36z"></path>
            <path d="M219.25 157.77c-6.16-3.75-23.77 5.35-29.57 13.31a23.81 23.81 0 0 1-1.89 1.9c20.5-37.43 41.89-74.61 51.69-85.7 6.47-8.8-16.18-14.85-22.39-16.38-23.63 33.37-53.92 80.63-73.11 118.75a3.53 3.53 0 0 0-.36.39c-34 43.92-63.38 55.62-87.78 55.28-18-.25-27.39-19.08-25.68-39.51C31.47 190 35.42 174.2 42.6 156 67.89 91.6 113.52 27.4 155.5 25.61c5.62-.24 10.61 3 10.08 8.59-1.18 12.56-10.94 42.66-42.22 83.8-10.52 13.84-23 26.47-32.46 33.92a3.85 3.85 0 0 0 .26 6.24l19 12.51a8 8 0 0 0 9.45-.49c18.35-15.3 32.4-35.45 42-50.68 14.46-22.93 23.18-36.76 28.93-56.2 6-20.3-2.28-40.3-9.54-48.52C170.24 2.56 159.17-1.59 139.19.53 113.69 3.24 82.38 22 45.91 81.88 18.16 127.39 6.25 161 .52 201.2c-2.21 15.48.38 80 52.68 73.09 26.11-3.46 50.38-19.49 68.76-38.66-2 4.47-3.47 8-4.37 10.38-.69 1.82-.71 2.9 1.4 4.91s13.58 10.38 16.79 10.93 4.48.55 5.53-1.47c4.91-9.47 18.46-35.53 34.22-64.8 9.56-16 26.79-18.13 21.83-10.68-13.23 19.82-26.17 44.23-28.89 54.88-.44 1.73-.17 3.23 1.66 5.26 2.82 3.11 12.16 9.56 15.88 10.72s4.7.52 5.65-1.67C197.38 241 216.1 202.18 230.5 178c5.5-9.31-2.93-15.17-11.25-20.23z"></path>
            <path d="M237.7 249.21c6.09-13 26.71-56.27 41.86-78.75a3 3 0 0 0-.61-3.85c-4.88-4.82-13.24-11.09-17.27-12.7-1.46-.58-4.48-1.23-5.38-.08-17.23 22-37.08 64.55-43.59 78.95-1.26 2.79 0 5.72 2.4 7.66s14.48 9.8 17.23 10.4 4.41.4 5.36-1.63z"></path>
            <path d="m275.36 134.87 11 8.15a3 3 0 0 0 4.26-.83A241.45 241.45 0 0 1 312.46 113c2.73-3.09 1.93-7.52-1.1-10.31-4.36-4-8.86-7.54-12.65-9.45a3.28 3.28 0 0 0-3.71.12c-9.34 8-17.2 21.92-21.68 31-1.83 3.69-1.32 8.09 2.04 10.51z"></path>
            <path d="M360.69 141.77c-10.22-5-31.31 12.1-31.31 12.1s-5.33-6.3-9.85-9.23c-2.42-1.57-5.13-2.83-7-2.5s-3.88 2.55-4.47 3.35c-36.61 49.36-83 156.31-90.77 173.49-.64 1.42-.06 3.85 2.43 6.34s16.73 11.22 19.18 12c2.86 1 4.39-1.14 5.53-4 4.52-11.29 28.77-71.89 46.62-97.55 1.24 3.93 17 16.7 31.23 11.36 11.08-4.15 24.5-22 32.25-36.31s12.67-23.45 18.05-39.29c4.94-14.36 4.16-21.86-11.89-29.76zm-17.9 29.79c-4.66 9.82-8.91 18.43-14.68 28.49-4.5 7.84-9.32 16.13-16.4 19.85-5.39 2.84-12.8 4.35-7.76-6.91 7.95-17.78 22.26-39.44 22.26-39.44 4.49-8.42 11.56-13 16.76-10.88 3.3 1.33.45 7.56-.18 8.89z"></path>
            <path d="M481.19 128.72c-14.3.85-30.44 11.48-38.33 20.53-15.79 18.1-26.54 37.13-30.09 50.56-5 18.94 10.94 33 23.6 33.31 21.76.61 33.54-8.59 44.3-16.88a87.22 87.22 0 0 0 11.72-10.5 2.77 2.77 0 0 0-.42-4.06l-8.91-7.37a1.66 1.66 0 0 0-2.25.23 86 86 0 0 1-12.5 11c-8.81 6.66-27.05 10.67-27.47 2.42-.31-6.19 1.43-8.87 1.43-8.87s23-4.29 49.81-18c15.05-7.66 20.39-18.34 21.7-27.65 1.59-11.16-13.08-25.88-32.59-24.72zm-5.43 36.17c-15.52 9.3-22.65 10.57-22.65 10.57s8.34-13 20.05-21.67c6.47-4.8 11.66-7.4 15.44-2.87 3.28 3.93-6.39 10.08-12.84 13.97z"></path>
            <path d="M428.36 148.69c-5.13-5-13-11.1-18.91-13.51a3.1 3.1 0 0 0-3.74.73c-18.21 23.3-39.35 69.45-44.56 81.12-.7 1.56-.41 2.43 1.34 4.27s11.3 9.56 19.86 12.19c2.41.75 3.5.5 4.09-.76 5.07-10.89 26.76-56.79 42.53-80.19a3 3 0 0 0-.61-3.85z"></path>
            <path d="M425.26 116.84s5 4.71 9.12 6.86c2.54 1.33 4.74 2 5.66.57a244.67 244.67 0 0 1 20.36-27.53c3.48-4 2.35-8.85-1.41-13.32a31.59 31.59 0 0 0-10.13-8c-1.26-.59-3.39-.85-4.44 0-9 7.68-16.82 20-21.51 29.3-2.16 4.28-1.52 9.34 2.35 12.12z"></path>
            <path d="M519.21 99.93a14.1 14.1 0 1 0 14.07 14.12 14 14 0 0 0-14.07-14.12zm0 25.56a11.47 11.47 0 1 1 11.29-11.44 11.11 11.11 0 0 1-11.29 11.44z"></path>
            <path d="M519.69 118a3.6 3.6 0 0 1-3.58-3.9c0-2.36 1.33-4 3.53-4a3.63 3.63 0 0 1 3.05 1.5l3-2.73a8.07 8.07 0 0 0-6.36-2.84 8 8 0 1 0 .1 15.94 7.86 7.86 0 0 0 6.37-2.88l-3-2.68a3.68 3.68 0 0 1-3.11 1.59z"></path>
        </g>
    </g>
</svg>